<svg xmlns="http://www.w3.org/2000/svg" width="24" height="24" fill="none" viewBox="0 0 24 24">
    <path fill="none" d="M0 0h24v24H0z"/>
    <path fill="none" d="M4 4h15.002v17H4z"/>
    <path fill="#3B495E" d="M18.23 5.307c-.396-.268-.949-.504-1.643-.702C15.221 4.215 13.415 4 11.5 4c-1.915 0-3.722.215-5.087.605-.694.198-1.246.434-1.643.702-.637.43-.77.886-.77 1.193V7c0 .428.321 1.133.639 1.609l4.891 7.336c.251.376.471 1.103.471 1.555v3a.5.5 0 0 0 .724.447l2-1a.5.5 0 0 0 .276-.447v-2c0-.452.22-1.179.471-1.555l4.891-7.336c.317-.476.639-1.182.639-1.609v-.5c0-.307-.134-.763-.77-1.193h-.002zm-11.542.26C7.967 5.202 9.676 5 11.5 5c1.824 0 3.534.201 4.812.567C17.69 5.961 18 6.383 18 6.5c0 .117-.31.54-1.688.933C15.033 7.798 13.324 8 11.5 8c-1.824 0-3.534-.201-4.812-.567C5.31 7.039 5 6.617 5 6.5c0-.117.31-.54 1.688-.933zm5.951 9.824c-.358.537-.639 1.464-.639 2.109v1.691l-1 .5V17.5c0-.646-.281-1.572-.639-2.109l-4.88-7.32c.274.117.585.226.932.324C7.779 8.785 9.585 9 11.5 9c1.915 0 3.722-.215 5.087-.605.346-.099.658-.207.932-.325l-4.88 7.32v.001z"/>
</svg>
